<?xml version="1.0" standalone="no"?>
<!DOCTYPE svg PUBLIC "-//W3C//DTD SVG 20010904//EN"
 "http://www.w3.org/TR/2001/REC-SVG-20010904/DTD/svg10.dtd">
<svg version="1.0" xmlns="http://www.w3.org/2000/svg"
 width="750.000000pt" height="500.000000pt" viewBox="0 0 750.000000 500.000000"
 preserveAspectRatio="xMidYMid meet">

<g transform="translate(0.000000,500.000000) scale(0.100000,-0.100000)"
fill="#000000" stroke="none">
<path d="M4580 4349 c-19 -12 -61 -42 -93 -66 -31 -24 -61 -41 -67 -38 -12 7
-113 -92 -106 -103 3 -5 24 -15 48 -22 51 -16 70 -30 42 -30 -16 -1 -16 -3 6
-15 16 -9 19 -15 10 -15 -10 -1 -7 -5 8 -12 24 -12 30 -28 10 -28 -8 -1 -6 -6
4 -14 10 -7 15 -16 11 -19 -3 -4 -1 -7 6 -7 7 0 19 -6 26 -14 12 -12 11 -16
-8 -29 -12 -7 -39 -20 -60 -26 -21 -7 -60 -28 -87 -46 -28 -19 -50 -32 -50
-29 0 3 9 24 21 47 l21 42 -41 -40 c-23 -22 -45 -39 -49 -38 -4 2 -7 -3 -8
-10 0 -6 -2 -21 -3 -32 -1 -14 -4 -16 -9 -7 -5 7 -8 -11 -9 -40 -1 -50 0 -52
14 -30 22 32 34 27 21 -9 -13 -38 -5 -137 14 -174 12 -22 38 -37 120 -70 101
-41 179 -86 207 -119 7 -9 18 -13 24 -9 5 3 7 1 4 -4 -4 -6 3 -19 16 -29 12
-10 16 -12 10 -4 -10 11 -3 18 40 40 28 15 55 25 58 24 12 -7 -4 -56 -20 -62
-9 -3 -19 -9 -22 -14 -3 -5 -15 -10 -26 -11 -20 -1 -20 -2 -2 -42 33 -74 58
-193 59 -277 1 -99 -8 -179 -23 -193 -7 -7 -8 -6 -3 3 4 6 5 12 2 12 -3 0 -13
-14 -21 -30 -20 -39 -59 -55 -96 -40 -15 7 -52 41 -83 77 -48 57 -54 70 -49
97 10 52 23 67 78 93 45 20 60 34 88 81 46 76 50 92 36 147 -25 101 -120 152
-269 143 -132 -8 -200 -66 -200 -171 0 -49 22 -117 38 -117 5 0 26 -15 45 -34
20 -19 50 -37 67 -41 17 -4 44 -18 60 -32 24 -20 30 -33 30 -65 0 -46 -11 -58
-79 -89 -27 -12 -47 -16 -50 -10 -4 6 -12 6 -21 1 -19 -12 -60 -13 -60 -1 0 6
-12 6 -32 0 -41 -11 -47 -5 -26 31 l16 29 -26 -12 c-15 -6 -34 -15 -42 -21 -8
-6 -3 3 13 20 34 37 34 43 0 36 -20 -4 -25 -2 -21 10 4 9 0 15 -8 15 -8 0 -12
-3 -9 -5 3 -3 -7 -19 -22 -35 l-28 -29 32 16 c48 24 51 20 13 -19 -31 -32 -31
-51 0 -22 10 8 9 5 -2 -13 -14 -22 -23 -25 -72 -25 -57 0 -64 3 -46 21 7 7 4
16 -9 28 -16 15 -23 16 -43 5 -21 -11 -22 -11 -10 4 8 9 11 25 7 36 -4 13 0
23 12 30 16 9 16 10 1 11 -22 0 -26 39 -11 120 15 81 16 137 3 145 -24 15
-110 -64 -110 -100 0 -11 -9 -31 -20 -45 -22 -28 -26 -45 -8 -34 8 5 9 0 4
-17 -4 -13 -8 -29 -8 -36 -1 -6 -18 -21 -39 -32 -34 -20 -46 -21 -159 -13 -67
4 -126 4 -133 0 -6 -4 -17 -2 -24 4 -14 11 -47 3 -39 -10 6 -10 -21 -8 -47 3
-22 9 -79 -6 -85 -23 -2 -7 7 -12 25 -12 35 0 60 -14 43 -25 -6 -4 -9 -13 -6
-21 3 -7 1 -16 -4 -19 -15 -9 -12 -35 3 -30 6 3 20 -8 29 -25 9 -16 24 -30 32
-30 18 0 36 -30 36 -58 0 -13 9 -22 25 -26 21 -5 25 -12 25 -45 0 -25 -7 -44
-20 -56 -11 -10 -20 -13 -20 -8 0 7 -12 8 -35 3 -32 -7 -35 -6 -35 14 0 34
-11 38 -36 15 -21 -19 -24 -20 -30 -6 -5 14 -10 13 -42 -8 -24 -17 -38 -21
-43 -14 -4 7 -12 8 -18 5 -14 -9 -14 -2 -1 24 6 11 15 29 20 40 14 28 12 43
-5 36 -11 -4 -15 1 -15 17 -1 27 -21 55 -36 50 -12 -4 -4 59 11 100 9 22 -3
22 -28 0 -19 -17 -18 -16 2 24 26 52 26 57 0 50 -19 -5 -20 -4 -5 16 9 12 35
59 57 104 22 45 58 100 80 123 42 43 63 48 35 8 -18 -26 -21 -42 -5 -32 6 3 3
-5 -6 -20 -17 -25 -17 -26 5 -26 21 0 22 -1 6 -25 -20 -30 -22 -55 -4 -37 17
17 33 15 18 -3 -11 -13 -8 -14 21 -8 l34 6 -18 -26 c-23 -36 -14 -34 43 8 27
20 62 40 78 46 24 8 29 15 26 38 -3 26 0 29 34 35 20 3 51 6 68 6 19 0 55 15
92 40 86 55 277 240 248 240 -3 0 -33 -25 -68 -55 -35 -30 -64 -51 -66 -45 -2
5 -13 8 -25 5 -54 -12 -99 -12 -112 1 -7 8 -25 14 -39 14 -14 0 -26 5 -26 11
0 13 -42 55 -62 61 -9 3 -5 9 9 17 19 10 30 8 64 -9 44 -23 91 -21 157 6 18 7
34 12 36 11 1 -1 10 4 19 12 12 9 30 11 61 7 40 -6 48 -4 80 24 70 62 112 196
88 283 -12 44 -8 47 12 10 19 -35 19 -23 2 69 -18 92 -40 152 -72 201 -26 40
-22 46 14 21 35 -24 26 1 -13 35 -31 27 -55 37 -130 54 -14 3 -12 5 9 6 24 1
27 3 16 16 -7 8 -10 22 -6 30 4 11 -2 15 -22 15 -25 0 -116 -18 -184 -35 -21
-5 -28 -3 -28 7 0 8 -7 23 -16 34 -15 18 -15 18 -5 -3 6 -12 8 -29 5 -37 -5
-14 -10 -13 -28 7 -43 46 -112 78 -225 101 -61 13 -111 23 -111 21 0 -1 30
-17 66 -35 36 -17 63 -34 61 -36 -2 -3 -42 8 -88 22 -46 15 -91 28 -99 29 -8
1 -32 10 -53 19 -59 26 -66 14 -14 -24 51 -36 55 -46 13 -30 -15 5 -51 10 -79
9 l-52 0 63 -19 c63 -17 102 -40 71 -40 -42 0 -124 -35 -160 -67 -22 -20 -37
-38 -34 -41 3 -3 -3 -14 -12 -25 -17 -19 -17 -19 7 -12 24 7 24 6 -6 -25 -23
-24 -53 -39 -110 -55 -76 -22 -78 -24 -51 -34 16 -6 33 -11 38 -11 5 0 9 -4 9
-8 0 -8 -163 -62 -186 -62 -6 0 -41 -20 -78 -44 -37 -24 -84 -47 -104 -52 -36
-7 -36 -8 -10 -13 26 -6 27 -7 13 -31 -36 -62 -55 -107 -54 -130 0 -22 1 -23
8 -5 6 16 10 10 15 -27 4 -26 14 -55 22 -63 16 -16 12 -69 -7 -80 -17 -11 -9
-26 10 -20 14 4 21 0 26 -16 4 -11 15 -29 25 -39 11 -11 22 -35 26 -55 3 -20
13 -39 20 -42 17 -6 19 -74 3 -106 -8 -17 -4 -15 16 7 29 31 37 28 53 -21 11
-34 3 -83 -19 -109 -19 -23 7 -17 50 12 27 18 49 24 73 22 l33 -3 -62 -40
c-67 -43 -76 -55 -41 -55 l22 0 -20 -14 c-12 -8 -42 -20 -67 -27 -26 -6 -47
-15 -47 -20 0 -14 87 -10 125 5 19 8 35 12 35 8 0 -4 -20 -34 -45 -66 -24 -33
-43 -62 -41 -64 3 -2 14 2 26 8 25 13 33 9 25 -12 -4 -9 -20 -19 -37 -22 -17
-3 -66 -22 -109 -42 -74 -33 -84 -35 -147 -29 -59 6 -77 3 -146 -23 -61 -22
-75 -30 -60 -37 16 -6 14 -9 -16 -20 -33 -11 -33 -12 -12 -19 31 -10 28 -17
-19 -46 -35 -22 -38 -26 -24 -37 15 -10 13 -13 -14 -28 -17 -8 -31 -20 -31
-26 0 -6 -4 -8 -9 -5 -5 3 -11 0 -14 -7 -3 -9 9 -11 47 -9 l51 4 -43 -32 c-24
-17 -42 -34 -39 -36 3 -3 24 0 47 6 23 6 44 9 46 7 7 -7 -75 -52 -119 -66 -20
-7 -42 -21 -47 -31 -8 -15 -5 -20 17 -27 25 -9 23 -10 -35 -36 -72 -33 -83
-44 -45 -49 l28 -4 -34 -16 c-40 -18 -32 -22 64 -34 l60 -7 -48 -13 c-62 -16
-68 -22 -29 -30 47 -9 39 -21 -23 -35 l-56 -12 31 -20 c17 -10 39 -17 50 -14
17 4 15 -1 -12 -35 -27 -35 -29 -40 -11 -34 75 24 105 17 93 -23 -9 -32 -2
-81 12 -81 5 0 3 -6 -4 -14 -7 -7 -20 -11 -28 -9 -10 3 -9 1 3 -7 20 -13 23
-38 5 -45 -7 -3 -14 -16 -14 -29 -1 -17 2 -23 12 -19 8 3 14 0 14 -6 0 -6 -7
-11 -16 -11 -10 0 -12 -4 -7 -12 4 -7 8 -17 9 -23 0 -5 2 -15 2 -21 1 -6 15
-9 32 -6 38 5 76 -19 82 -53 5 -21 -1 -30 -26 -47 -17 -11 -39 -35 -48 -53
l-16 -33 99 -4 c102 -4 148 -20 94 -34 -20 -5 -23 -9 -13 -15 7 -5 23 -9 36
-9 12 0 25 -7 28 -15 4 -10 20 -15 46 -15 23 0 37 -4 33 -10 -3 -5 -15 -10
-26 -10 -10 0 -19 -4 -19 -10 0 -5 26 -10 58 -12 l57 -3 -30 -17 c-17 -9 -47
-19 -68 -23 -41 -8 -47 -19 -17 -35 11 -6 30 -21 43 -34 15 -15 45 -28 83 -35
32 -7 74 -19 93 -27 21 -9 45 -12 63 -9 l30 7 -7 -44 c-3 -23 -2 -48 2 -53 4
-6 51 -27 103 -48 82 -32 111 -38 215 -45 173 -12 271 -8 290 12 20 20 25 20
51 1 12 -8 24 -12 27 -9 2 3 30 -1 61 -9 56 -15 56 -15 62 9 6 21 10 23 66 21
63 -3 74 -11 85 -60 12 -55 22 -36 17 35 -2 40 -1 67 2 61 14 -30 25 -10 19
35 -7 53 -1 48 41 -31 14 -27 27 -47 30 -45 2 3 -5 31 -16 63 -23 68 -25 79
-5 45 16 -28 21 -9 5 21 -18 33 -4 21 24 -22 29 -43 47 -48 26 -7 -13 23 -13
23 7 3 11 -11 18 -27 15 -35 -5 -13 -4 -13 13 0 17 14 18 13 12 -2 -4 -11 -2
-15 7 -12 7 3 25 0 39 -5 17 -7 27 -7 27 -1 0 6 7 10 16 10 9 0 12 -5 8 -12
-5 -8 0 -7 11 2 10 8 16 10 12 3 -4 -6 -3 -14 3 -18 5 -3 10 -1 10 5 0 7 9 5
22 -4 33 -23 45 -20 16 4 -36 27 -91 117 -82 131 4 7 3 9 -3 6 -10 -7 -23 13
-23 35 0 5 26 -12 57 -39 93 -78 123 -97 136 -84 8 8 8 14 -1 23 -18 18 -15
41 5 34 9 -4 -21 32 -66 79 -46 48 -80 89 -77 92 3 4 14 0 23 -9 58 -48 70
-42 18 8 -33 31 -86 84 -117 118 -48 51 -55 56 -42 28 9 -18 14 -35 12 -37 -2
-2 -36 40 -75 93 -74 99 -173 205 -173 185 0 -6 -15 3 -33 20 -18 18 -57 52
-86 75 -28 24 -66 68 -82 98 -17 30 -33 54 -36 54 -3 0 -3 -18 0 -40 3 -22 2
-38 -3 -35 -11 7 -30 88 -30 129 0 34 -11 52 -24 39 -20 -20 -42 -10 -60 28
l-19 39 -23 -21 c-12 -11 -27 -40 -33 -64 -10 -40 -32 -62 -51 -50 -13 8 -48
123 -55 180 -5 44 -2 58 29 120 19 39 49 84 67 100 18 17 29 24 25 18 -11 -20
-4 -17 70 32 74 49 118 65 177 65 26 0 37 -4 37 -15 0 -9 9 -15 22 -15 19 0
20 -2 6 -17 -17 -21 -13 -53 8 -53 16 0 18 -23 4 -50 -9 -17 -7 -18 25 -13 26
4 36 2 41 -11 3 -9 11 -13 16 -10 6 4 -2 -14 -17 -40 -15 -26 -26 -49 -23 -51
2 -2 26 10 53 28 46 30 55 32 135 31 94 -1 138 -17 167 -60 20 -31 42 -130 43
-194 1 -25 10 -70 20 -100 11 -30 17 -43 15 -28 -8 42 12 42 25 1 7 -21 17
-42 22 -48 6 -6 7 -3 2 10 -4 13 4 8 25 -15 18 -19 31 -28 29 -20 -2 8 3 14
10 12 7 -1 15 5 19 14 5 13 7 13 14 2 6 -8 9 5 9 35 0 26 3 47 8 47 4 0 18
-23 31 -51 35 -72 81 -88 81 -28 0 50 26 89 59 89 28 0 28 1 23 46 -3 31 -1
45 5 41 7 -5 8 5 3 30 -11 47 9 98 42 108 12 4 25 11 28 15 11 16 112 70 131
70 22 0 65 -27 113 -69 l29 -26 -18 30 c-10 17 -37 49 -59 72 -39 42 -39 42
-16 51 16 6 19 11 12 16 -7 4 -25 -3 -42 -17 -53 -45 -110 -60 -208 -55 -80 4
-96 8 -174 47 -54 27 -85 48 -82 56 3 7 -3 15 -14 17 -10 3 -19 12 -19 20 0
13 6 14 31 7 17 -5 43 -9 59 -9 15 0 30 -7 33 -15 4 -8 13 -15 21 -15 8 0 11
-4 8 -10 -4 -6 5 -10 19 -10 14 0 26 -4 26 -10 0 -5 7 -10 15 -10 8 0 15 -7
15 -15 0 -10 10 -15 28 -15 55 1 179 42 174 59 -1 6 4 11 11 11 8 0 34 13 58
30 55 37 73 39 65 5 -5 -20 -3 -23 11 -18 11 4 14 3 9 -5 -5 -8 -2 -10 8 -6 9
3 13 10 10 16 -7 12 79 2 105 -12 14 -7 19 -20 18 -46 -2 -31 5 -43 42 -80 47
-48 50 -67 5 -37 -27 17 -26 15 13 -42 22 -33 50 -80 62 -104 l23 -44 -31 22
c-17 12 -31 20 -31 17 0 -3 34 -56 75 -118 84 -126 97 -163 34 -103 l-41 40
21 -42 c11 -22 23 -61 27 -85 l6 -43 -26 30 c-31 37 -33 28 -4 -22 19 -31 23
-56 26 -140 4 -102 -8 -244 -16 -193 -16 103 -68 227 -108 261 -16 13 -16 12
-2 -16 9 -16 18 -55 22 -85 l6 -55 -21 45 c-18 41 -84 120 -99 120 -4 0 2 -28
13 -61 18 -54 19 -67 8 -108 -7 -25 -30 -73 -51 -106 -57 -88 -73 -132 -73
-203 -1 -84 18 -102 26 -25 4 32 12 76 18 97 l11 40 32 -39 c23 -27 35 -35 40
-26 5 7 14 10 22 7 7 -3 16 -1 20 5 4 7 12 5 22 -4 21 -19 93 -49 100 -42 3 3
0 5 -6 5 -27 0 -78 123 -65 157 4 11 11 9 32 -11 36 -35 105 -62 189 -75 104
-16 113 -14 52 15 -52 24 -130 88 -130 106 0 5 10 3 23 -3 21 -11 21 -11 5 7
-27 31 -31 68 -14 119 12 34 16 75 14 146 -2 54 -5 91 -8 83 -4 -11 -10 -5
-17 19 -9 29 -8 35 3 30 11 -4 14 8 14 52 l0 58 21 -27 c25 -32 69 -56 101
-56 23 1 23 1 -3 17 -33 20 -59 63 -58 95 0 12 3 17 6 10 7 -17 57 -42 85 -42
l22 0 -23 16 c-23 16 -51 70 -51 98 0 11 7 10 37 -5 21 -10 53 -19 73 -19 l35
1 -31 13 c-34 15 -64 51 -64 77 0 16 4 16 47 3 53 -16 71 -12 21 5 -30 10 -78
63 -78 87 0 5 -14 36 -30 69 -19 38 -30 74 -29 100 l1 40 21 -45 22 -45 5 57
c6 66 11 73 38 59 12 -6 33 -11 48 -11 27 0 26 0 -12 29 -43 31 -94 87 -94
103 0 5 14 -2 30 -16 37 -30 94 -49 135 -44 l30 3 -45 24 c-69 36 -99 60 -115
91 l-14 28 51 -19 c67 -26 79 -20 31 15 -21 16 -29 25 -18 22 37 -13 116 -28
121 -23 3 2 -16 15 -42 28 -26 13 -58 38 -72 56 l-23 31 56 -14 c81 -21 87
-13 19 27 l-59 34 75 5 c78 5 83 12 15 25 -57 10 -141 52 -165 82 -30 38 -17
40 27 4 46 -38 66 -41 31 -3 -22 23 -58 82 -58 95 0 2 21 -6 48 -19 26 -12 63
-25 82 -29 l35 -6 -35 22 c-19 12 -51 35 -70 52 l-34 30 77 -6 c42 -4 77 -5
77 -3 0 2 -37 17 -82 35 -82 31 -136 58 -93 47 11 -3 54 -8 95 -11 54 -5 71
-4 60 4 -8 6 -24 11 -35 11 -49 2 -158 58 -170 88 -3 9 2 9 23 -2 30 -15 142
-39 150 -31 5 5 3 6 -59 25 -50 15 -131 68 -124 81 5 7 15 5 31 -5 13 -9 34
-16 46 -16 22 1 22 2 -5 16 -15 8 -25 19 -22 25 4 5 24 -1 48 -15 38 -22 136
-56 160 -56 5 0 3 7 -4 16 -18 21 -14 47 22 151 33 94 32 118 -1 53 -26 -52
-33 -48 -17 8 7 24 16 40 19 37 3 -4 9 3 13 14 3 12 10 19 14 17 9 -6 49 105
54 149 l3 30 17 -35 17 -35 -5 44 c-3 25 -17 66 -30 93 -13 26 -20 48 -15 48
27 0 -11 36 -64 62 l-61 28 45 -6 c42 -6 44 -5 30 11 -14 17 -13 18 15 13 17
-3 39 -8 50 -12 l20 -8 -20 17 c-11 9 -32 19 -47 22 -40 8 -34 21 10 25 l37 4
-56 27 c-33 16 -91 32 -138 39 -44 7 -81 15 -81 19 0 5 10 15 22 23 22 16 22
16 -15 16 -20 0 -37 4 -37 8 0 4 -10 8 -22 9 -11 1 -24 6 -27 10 -7 9 -163 84
-226 108 l-40 15 50 -4 c28 -2 59 -7 70 -12 45 -18 -8 26 -67 55 -53 27 -57
31 -36 36 13 3 43 2 67 -4 30 -6 40 -6 33 1 -13 13 -156 48 -195 48 -16 0 -26
4 -22 10 8 13 -30 13 -73 1 -54 -16 -39 15 28 54 l45 26 -35 -7 c-19 -3 -50
-12 -68 -20 l-33 -13 21 29 c12 16 31 36 43 45 34 24 -2 18 -43 -6z m-1605
-299 c-3 -5 -12 -10 -18 -10 -7 0 -6 4 3 10 19 12 23 12 15 0z m845 -143 c42
-17 55 -27 55 -43 1 -12 20 -43 44 -70 44 -49 80 -115 81 -145 0 -22 -36 -93
-56 -110 -16 -12 -17 -12 -11 4 7 20 -4 16 -35 -11 -16 -13 -20 -12 -37 9 -11
13 -22 43 -26 66 -3 24 -10 45 -14 47 -4 3 -8 19 -9 37 0 17 -3 33 -5 35 -10
10 -92 -16 -104 -33 -12 -15 -13 -13 -10 16 3 21 14 42 33 57 l29 25 -47 -6
c-55 -7 -88 7 -88 36 0 13 -8 23 -21 26 -14 4 -19 12 -17 27 2 16 14 24 52 33
26 7 51 14 54 18 12 12 81 3 132 -18z m755 -11 c29 -7 29 -7 10 9 l-20 17 20
-7 c11 -4 28 -10 37 -12 15 -5 88 -101 88 -117 0 -3 -12 -6 -27 -6 l-26 0 20
-22 c11 -13 29 -36 39 -52 l18 -29 -21 12 c-33 17 -38 13 -17 -11 10 -13 12
-17 4 -10 -32 28 -31 9 1 -24 19 -19 26 -32 17 -29 -23 9 -23 4 3 -39 25 -42
17 -66 -14 -39 -11 10 -40 50 -65 88 -51 78 -58 85 -88 85 -38 0 -57 -44 -50
-111 8 -64 2 -70 -39 -43 -27 18 -33 7 -14 -28 21 -39 -15 -14 -37 26 -20 35
-23 37 -32 20 -10 -17 -13 -15 -27 21 -8 22 -20 48 -26 59 -15 26 -1 110 22
135 23 24 82 51 113 51 12 0 31 -6 42 -14 17 -12 21 -12 21 -1 0 7 -11 16 -24
20 -12 3 -23 10 -23 15 0 6 -7 10 -15 10 -8 0 -15 5 -15 10 0 6 8 10 18 10 9
0 28 6 42 13 14 7 27 10 30 7 3 -4 19 -10 35 -14z m-1379 -11 c12 -12 12 -15
2 -15 -10 0 -9 -3 2 -10 8 -5 10 -10 4 -10 -14 0 -40 30 -28 31 5 0 0 4 -11 9
-18 8 -18 9 -2 9 10 1 25 -6 33 -14z m-37 -21 c2 -2 -7 -4 -22 -4 -14 0 -29 5
-32 10 -6 10 42 4 54 -6z m37 -50 c-21 -21 -20 -29 2 -14 9 7 1 -2 -18 -19
-29 -26 -40 -30 -65 -25 l-30 6 25 -27 c14 -15 19 -25 11 -23 -7 2 -16 -3 -18
-9 -7 -21 18 -15 46 9 24 21 24 21 -1 -8 -28 -31 -37 -51 -17 -38 8 4 8 0 0
-15 -13 -24 -23 -28 -15 -6 4 8 2 15 -4 15 -6 0 -15 -14 -21 -31 -10 -29 -9
-30 6 -18 14 12 16 12 8 -1 -20 -37 -57 -80 -68 -80 -7 0 -25 -19 -40 -42 -34
-52 -34 -40 -2 42 29 75 28 97 -3 49 -26 -40 -28 -35 -7 15 8 20 15 39 16 43
0 5 13 22 29 38 35 37 41 56 18 60 -10 2 -18 -3 -18 -11 0 -9 -11 -13 -32 -12
-18 0 -61 -13 -95 -29 -35 -17 -63 -28 -63 -25 0 22 80 95 134 123 65 33 65
34 81 14 16 -20 16 -20 11 3 -4 22 -2 24 28 18 18 -4 44 -2 57 3 13 5 32 10
42 10 17 1 17 0 3 -15z m1462 -245 c40 -40 36 -46 -12 -18 -22 13 -46 19 -61
17 -26 -5 -36 16 -12 25 29 12 55 5 85 -24z m390 -4 c-3 -3 -9 2 -12 12 -6 14
-5 15 5 6 7 -7 10 -15 7 -18z m-1549 -91 l-34 -35 27 6 c27 7 28 7 17 -24 -6
-17 -15 -28 -21 -25 -5 3 -17 -1 -26 -8 -30 -26 -42 -30 -36 -14 7 19 0 20
-28 5 -20 -11 -20 -10 -4 12 18 26 21 43 6 34 -15 -9 -12 11 4 24 8 7 24 14
36 16 12 2 36 13 53 24 45 27 45 26 6 -15z m261 -1 c0 -10 -6 -12 -22 -7 -31
9 -35 14 -19 24 18 11 41 2 41 -17z m816 2 c-10 -8 -23 -12 -28 -9 -14 9 2 24
25 24 21 -1 21 -1 3 -15z m-756 -40 c0 -6 -6 -19 -12 -28 -11 -15 -13 -11 -13
28 0 39 2 43 13 28 6 -9 12 -22 12 -28z m840 1 c0 -25 -7 -39 -22 -50 -29 -21
-41 -20 -69 3 -21 18 -22 19 -4 15 25 -6 92 20 76 30 -16 10 -14 36 4 36 10 0
15 -10 15 -34z m-977 -32 c6 -1 19 -5 27 -8 9 -4 26 4 43 19 19 18 27 21 27
11 0 -23 -50 -56 -86 -56 -33 0 -64 21 -64 44 0 23 14 28 27 10 7 -10 19 -19
26 -20z m1453 -49 c21 -24 41 -42 45 -39 9 5 35 -36 31 -49 -1 -5 2 -6 7 -2 6
3 15 -3 21 -14 12 -24 -7 -42 -21 -20 -6 10 -9 11 -9 2 0 -7 -3 -13 -8 -13
-17 0 -83 68 -96 100 -37 94 -28 105 30 35z m-668 -26 c4 -24 -43 -50 -104
-56 -65 -7 -74 10 -16 33 20 8 48 21 62 28 31 18 54 16 58 -5z m453 -252 c17
-29 24 -46 15 -38 -24 20 -20 -3 9 -49 29 -46 30 -51 10 -44 -17 7 -19 0 -5
-26 8 -15 6 -17 -8 -13 -12 3 -23 -4 -32 -21 -11 -22 -11 -28 2 -43 26 -30 48
-133 28 -133 -8 0 -7 -6 1 -22 l12 -23 -22 20 c-23 19 -23 19 -41 -5 -16 -22
-17 -26 -3 -47 20 -30 3 -31 -44 -2 -34 21 -57 19 -35 -3 25 -25 10 -28 -18
-4 -17 14 -30 27 -29 28 1 2 -3 13 -9 25 -9 17 -9 22 3 26 10 4 12 1 9 -11 -5
-14 -4 -15 5 -2 7 11 6 21 -5 38 -15 22 -14 23 3 13 24 -12 48 2 40 23 -4 10
-1 19 9 23 13 5 13 8 -1 29 -13 21 -13 23 0 18 18 -7 20 18 5 46 -7 14 -6 23
6 34 16 17 13 28 -19 64 -24 26 -12 30 15 5 17 -15 18 -14 18 21 0 21 4 35 10
31 6 -4 7 13 4 44 -10 90 11 89 67 -2z m-531 45 c0 -16 -34 -40 -67 -46 -45
-10 -50 10 -6 24 21 7 42 16 48 21 12 11 25 12 25 1z m360 -488 c29 -66 24
-79 -5 -16 -27 57 -28 62 -20 62 3 0 15 -21 25 -46z m-522 -91 c13 -8 40 -16
59 -18 19 -2 40 -8 45 -13 7 -7 15 -6 26 4 8 8 21 13 29 10 8 -4 27 0 41 8 72
38 133 43 170 14 27 -22 0 -131 -46 -181 -41 -46 -171 -79 -173 -44 0 10 -2
10 -6 0 -14 -35 -147 -2 -202 50 -66 63 -94 168 -48 187 27 11 73 3 105 -17z
m-1488 -206 c0 -2 -10 -12 -22 -23 l-23 -19 19 23 c18 21 26 27 26 19z m1677
-113 c-3 -3 -12 -4 -19 -1 -8 3 -5 6 6 6 11 1 17 -2 13 -5z m-1719 -55 c11 -7
18 -19 15 -27 -5 -11 -8 -11 -14 -1 -4 7 -21 12 -37 12 -27 0 -33 9 -23 34 2
5 41 -7 59 -18z m142 -32 c0 -2 -10 -12 -22 -23 l-23 -19 19 23 c18 21 26 27
26 19z m-146 -42 c-4 -8 -10 -12 -15 -9 -11 6 -2 24 11 24 5 0 7 -7 4 -15z
m216 -127 c0 -5 4 -7 9 -4 5 4 6 -4 3 -16 -5 -18 -7 -19 -10 -6 -2 9 -9 19
-17 22 -11 4 -13 -2 -8 -24 3 -19 1 -30 -6 -30 -11 0 -16 19 -13 53 1 12 -6 8
-29 -15 l-31 -33 27 36 c21 28 33 35 51 31 13 -2 24 -9 24 -14z m-50 -43 c0
-8 -7 -15 -16 -15 -14 0 -14 3 -4 15 7 8 14 15 16 15 2 0 4 -7 4 -15z m-46
-23 c3 -5 -1 -9 -9 -9 -8 0 -12 4 -9 9 3 4 7 8 9 8 2 0 6 -4 9 -8z m67 -42
c14 0 19 -7 18 -27 -1 -40 -12 -74 -23 -73 -5 1 -13 -4 -18 -12 -6 -8 -8 7 -5
45 2 32 0 60 -4 63 -5 2 -5 12 -1 22 6 16 7 16 10 0 2 -10 12 -18 23 -18z
m-61 6 c0 -2 -8 -10 -17 -17 -16 -13 -17 -12 -4 4 13 16 21 21 21 13z m56
-157 c1 -25 -1 -28 -8 -15 -5 10 -7 24 -4 32 8 21 11 17 12 -17z m21 -6 c-3
-10 -5 -4 -5 12 0 17 2 24 5 18 2 -7 2 -21 0 -30z m-774 -112 c-2 -10 3 -25
12 -34 23 -24 8 -43 -16 -21 -21 19 -25 60 -6 67 6 3 13 6 14 6 0 1 -1 -7 -4
-18z m1742 -409 c-9 -10 -55 30 -71 61 -16 31 -15 31 30 -12 25 -25 44 -47 41
-49z m-194 1 c13 -16 12 -17 -3 -4 -10 7 -18 15 -18 17 0 8 8 3 21 -13z"/>
<path d="M3030 3659 c0 -5 5 -7 10 -4 6 3 10 8 10 11 0 2 -4 4 -10 4 -5 0 -10
-5 -10 -11z"/>
<path d="M3063 3578 c-20 -26 -26 -41 -15 -34 12 7 36 46 29 46 -3 0 -9 -6
-14 -12z"/>
<path d="M4018 2263 c7 -3 16 -2 19 1 4 3 -2 6 -13 5 -11 0 -14 -3 -6 -6z"/>
<path d="M3089 2243 c-13 -16 -12 -17 4 -4 16 13 21 21 13 21 -2 0 -10 -8 -17
-17z"/>
<path d="M3420 1809 c0 -16 4 -28 9 -25 8 5 3 56 -5 56 -2 0 -4 -14 -4 -31z"/>
<path d="M4150 1686 c0 -2 8 -10 18 -17 15 -13 16 -12 3 4 -13 16 -21 21 -21
13z"/>
<path d="M4190 1681 c0 -6 4 -13 10 -16 6 -3 7 1 4 9 -7 18 -14 21 -14 7z"/>
<path d="M2054 1507 c-7 -20 3 -37 22 -37 18 0 18 24 -1 40 -12 10 -16 9 -21
-3z"/>
<path d="M3786 1402 c32 -55 73 -100 122 -134 42 -27 37 -20 -43 63 -49 52
-91 96 -94 99 -2 3 4 -10 15 -28z"/>
<path d="M4050 934 c0 -8 5 -12 10 -9 6 4 8 11 5 16 -9 14 -15 11 -15 -7z"/>
</g>
</svg>
